<svg xmlns="http://www.w3.org/2000/svg" viewBox="0 0 281.84 74.87"><defs><style>.cls-1{fill:#ff3c1e;stroke:#000;stroke-miterlimit:10;stroke-width:2px;}</style></defs><title>Loader_1</title><g id="Layer_2" data-name="Layer 2"><g id="Layer_1-2" data-name="Layer 1"><path class="cls-1" d="M11.56,63.31a37,37,0,0,1,0-51.75,37,37,0,0,1,51.74,0A36.77,36.77,0,0,0,89.35,22.12a36.53,36.53,0,0,0,25.7-10.56,37,37,0,0,1,51.74,0,36.75,36.75,0,0,0,26.05,10.56,36.54,36.54,0,0,0,25.7-10.56,37,37,0,0,1,51.74,0,36.59,36.59,0,0,1-51.74,51.75,37,37,0,0,0-51.75,0,37,37,0,0,1-51.74,0,37,37,0,0,0-51.75,0,37,37,0,0,1-51.74,0Z"/></g></g></svg>